<svg width="102" height="25" viewBox="0 0 102 25" fill="none" xmlns="http://www.w3.org/2000/svg">
<path d="M20 18.047V19.047C20 20.147 19.1 21.047 18 21.047H4C2.89 21.047 2 20.147 2 19.047V5.047C2 3.947 2.89 3.047 4 3.047H18C19.1 3.047 20 3.947 20 5.047V6.047H11C9.89 6.047 9 6.947 9 8.047V16.047C9 17.147 9.89 18.047 11 18.047H20ZM11 16.047H21V8.047H11V16.047ZM15 13.547C14.17 13.547 13.5 12.877 13.5 12.047C13.5 11.217 14.17 10.547 15 10.547C15.83 10.547 16.5 11.217 16.5 12.047C16.5 12.877 15.83 13.547 15 13.547Z" fill="#7B7B7B"/>
<path d="M34.6748 12.6241H29.5244V18.047H27.3008V5.25012H35.4307V7.04309H29.5244V10.8488H34.6748V12.6241ZM39.4127 18.047H37.277V8.53723H39.4127V18.047ZM37.1451 6.0675C37.1451 5.73938 37.2477 5.46692 37.4527 5.25012C37.6637 5.03333 37.9625 4.92493 38.3492 4.92493C38.7359 4.92493 39.0348 5.03333 39.2457 5.25012C39.4566 5.46692 39.5621 5.73938 39.5621 6.0675C39.5621 6.38977 39.4566 6.6593 39.2457 6.8761C39.0348 7.08704 38.7359 7.1925 38.3492 7.1925C37.9625 7.1925 37.6637 7.08704 37.4527 6.8761C37.2477 6.6593 37.1451 6.38977 37.1451 6.0675ZM43.8781 8.53723L43.9396 9.63586C44.6428 8.78625 45.5656 8.36145 46.7082 8.36145C48.6887 8.36145 49.6965 9.49524 49.7316 11.7628V18.047H47.5959V11.8859C47.5959 11.2823 47.4641 10.837 47.2004 10.5499C46.9426 10.257 46.5178 10.1105 45.926 10.1105C45.0646 10.1105 44.423 10.5001 44.0012 11.2794V18.047H41.8654V8.53723H43.8781ZM62.0369 13.881C61.908 15.2462 61.4041 16.3126 60.5252 17.0802C59.6463 17.8419 58.4773 18.2228 57.0184 18.2228C55.9988 18.2228 55.0994 17.9825 54.3201 17.5021C53.5467 17.0157 52.949 16.3273 52.5271 15.4366C52.1053 14.546 51.8855 13.5118 51.868 12.3341V11.1388C51.868 9.93176 52.0818 8.86829 52.5096 7.94836C52.9373 7.02844 53.5496 6.31946 54.3465 5.82141C55.1492 5.32336 56.075 5.07434 57.1238 5.07434C58.5359 5.07434 59.6727 5.45813 60.534 6.22571C61.3953 6.99329 61.8963 8.07727 62.0369 9.47766H59.8221C59.7166 8.55774 59.4471 7.89563 59.0135 7.49133C58.5857 7.08118 57.9559 6.8761 57.1238 6.8761C56.157 6.8761 55.4129 7.23059 54.8914 7.93958C54.3758 8.6427 54.1121 9.67688 54.1004 11.0421V12.1759C54.1004 13.5587 54.3465 14.6134 54.8387 15.34C55.3367 16.0665 56.0633 16.4298 57.0184 16.4298C57.8914 16.4298 58.5477 16.2335 58.9871 15.8409C59.4266 15.4484 59.7049 14.795 59.8221 13.881H62.0369ZM66.0805 9.57434C66.7777 8.76575 67.6596 8.36145 68.726 8.36145C70.7533 8.36145 71.7816 9.51868 71.8109 11.8331V18.047H69.6752V11.9122C69.6752 11.256 69.5316 10.7931 69.2445 10.5236C68.9633 10.2482 68.5473 10.1105 67.9965 10.1105C67.141 10.1105 66.5023 10.4913 66.0805 11.2531V18.047H63.9447V4.547H66.0805V9.57434ZM78.3154 18.2228C76.9619 18.2228 75.8633 17.798 75.0195 16.9484C74.1816 16.0929 73.7627 14.9562 73.7627 13.5382V13.2745C73.7627 12.3253 73.9443 11.4786 74.3076 10.7345C74.6768 9.9845 75.1924 9.40149 75.8545 8.98547C76.5166 8.56946 77.2549 8.36145 78.0693 8.36145C79.3643 8.36145 80.3633 8.77454 81.0664 9.60071C81.7754 10.4269 82.1299 11.5958 82.1299 13.1075V13.9689H75.916C75.9805 14.754 76.2412 15.3751 76.6982 15.8322C77.1611 16.2892 77.7412 16.5177 78.4385 16.5177C79.417 16.5177 80.2139 16.1222 80.8291 15.3312L81.9805 16.4298C81.5996 16.9982 81.0898 17.4406 80.4512 17.757C79.8184 18.0675 79.1064 18.2228 78.3154 18.2228ZM78.0605 10.0753C77.4746 10.0753 77 10.2804 76.6367 10.6906C76.2793 11.1007 76.0508 11.672 75.9512 12.4044H80.0205V12.2462C79.9736 11.5314 79.7832 10.9923 79.4492 10.629C79.1152 10.2599 78.6523 10.0753 78.0605 10.0753ZM87.8521 16.5177C88.3853 16.5177 88.8277 16.3624 89.1793 16.0519C89.5309 15.7413 89.7184 15.3575 89.7418 14.9005H91.7545C91.7311 15.4923 91.5465 16.046 91.2008 16.5616C90.8551 17.0714 90.3863 17.4757 89.7945 17.7745C89.2027 18.0734 88.5641 18.2228 87.8785 18.2228C86.5484 18.2228 85.4937 17.7921 84.7145 16.9308C83.9352 16.0695 83.5455 14.88 83.5455 13.3624V13.1427C83.5455 11.6954 83.9322 10.5382 84.7057 9.67102C85.4791 8.79797 86.5338 8.36145 87.8697 8.36145C89.0006 8.36145 89.9205 8.6925 90.6295 9.35461C91.3443 10.0109 91.7193 10.8751 91.7545 11.9474H89.7418C89.7184 11.4025 89.5309 10.9542 89.1793 10.6027C88.8336 10.2511 88.3912 10.0753 87.8521 10.0753C87.1607 10.0753 86.6275 10.3273 86.2525 10.8312C85.8775 11.3292 85.6871 12.088 85.6812 13.1075V13.4503C85.6812 14.4816 85.8658 15.2521 86.235 15.7618C86.61 16.2657 87.149 16.5177 87.8521 16.5177ZM96.6066 13.9689L95.6574 14.9445V18.047H93.5217V4.547H95.6574V12.3341L96.3254 11.4991L98.9533 8.53723H101.52L97.9865 12.5011L101.898 18.047H99.4279L96.6066 13.9689Z" fill="black"/>
</svg>
