<svg width="19" height="19" viewBox="0 0 19 19" fill="none" xmlns="http://www.w3.org/2000/svg">
<path d="M18 15.047V16.047C18 17.147 17.1 18.047 16 18.047H2C0.89 18.047 0 17.147 0 16.047V2.047C0 0.946997 0.89 0.0469971 2 0.0469971H16C17.1 0.0469971 18 0.946997 18 2.047V3.047H9C7.89 3.047 7 3.947 7 5.047V13.047C7 14.147 7.89 15.047 9 15.047H18ZM9 13.047H19V5.047H9V13.047ZM13 10.547C12.17 10.547 11.5 9.877 11.5 9.047C11.5 8.217 12.17 7.547 13 7.547C13.83 7.547 14.5 8.217 14.5 9.047C14.5 9.877 13.83 10.547 13 10.547Z" fill="#7B7B7B"/>
</svg>
