<svg width="18" height="23" viewBox="0 0 18 23" fill="none" xmlns="http://www.w3.org/2000/svg">
<path d="M-0.000876606 22.5443C-0.0791744 22.4667 -0.082994 22.0693 -0.00617503 21.9931C0.0354061 21.9518 0.216144 21.9348 0.777449 21.919C1.43621 21.9005 1.53446 21.889 1.7897 21.8006C2.18762 21.6628 2.4443 21.4987 2.7003 21.2187C3.12643 20.7525 3.15133 20.5572 3.17677 17.4808L3.19636 15.1116H1.60853C0.215404 15.1116 0.0134261 15.1044 -0.0386416 15.0527C-0.125222 14.9669 -0.125222 14.1326 -0.0386416 14.0467C0.0134212 13.9951 0.215005 13.9879 1.60414 13.9879H3.18757V13.2949V12.6019H1.60414C0.215005 12.6019 0.0134212 12.5947 -0.0386416 12.5431C-0.125222 12.4572 -0.125222 11.6229 -0.0386416 11.537C0.0134212 11.4854 0.215005 11.4782 1.60414 11.4782H3.18757L3.18684 7.7792C3.18596 3.25196 3.15264 2.52447 2.91767 1.90156C2.77621 1.52655 2.3378 1.17927 1.79026 1.00849C1.6355 0.96022 1.38246 0.937665 0.797479 0.92C0.159158 0.900723 0.0057217 0.885788 -0.0233321 0.840104C-0.0841764 0.744433 -0.0680262 0.328784 -0.000876606 0.262181C0.0524389 0.209299 0.533021 0.203366 4.72919 0.203794C9.86536 0.204317 10.1311 0.213329 11.3691 0.429009C12.9118 0.697768 14.0878 1.19676 15.0269 1.9811C15.5343 2.40485 16.0818 3.02912 16.3753 3.51835C16.7003 4.06017 16.8057 4.32652 16.9883 5.06678C17.2594 6.16553 17.1967 7.43893 16.8147 8.59391C16.6996 8.94167 16.3662 9.61574 16.1532 9.93115C15.1548 11.4094 13.5277 12.2846 11.2882 12.548C10.9451 12.5883 10.2958 12.6013 8.61629 12.6016L6.39759 12.6019V13.2949V13.9879H11.2288C15.5705 13.9879 16.0661 13.9938 16.1194 14.0467C16.206 14.1326 16.206 14.9669 16.1194 15.0527C16.0661 15.1056 15.5705 15.1116 11.2288 15.1116H6.39759L6.39818 17.0313C6.39894 19.5433 6.45155 20.3017 6.66388 20.8614C6.76907 21.1387 7.12148 21.4998 7.44509 21.6618C7.8572 21.8681 8.01935 21.8983 8.82617 21.9192C9.40756 21.9343 9.58633 21.9507 9.62867 21.9927C9.7059 22.0693 9.7024 22.4664 9.62381 22.5443C9.57048 22.5972 9.08202 22.6032 4.81146 22.6032C0.540912 22.6032 0.0524446 22.5972 -0.000876606 22.5443ZM9.87198 11.4057C10.6797 11.2595 11.4316 10.8368 12.0783 10.1653C12.7089 9.5107 13.0964 8.71928 13.2513 7.76931C13.3336 7.2649 13.3352 6.15967 13.2545 5.55981C12.9695 3.43992 11.812 2.12514 9.87497 1.72099C9.42916 1.62797 8.64151 1.58701 8.09374 1.62836C7.6145 1.66453 6.68902 1.81463 6.4957 1.88754L6.39759 1.92453V6.70528V11.486L8.01205 11.4681C9.0133 11.457 9.71974 11.4333 9.87198 11.4057Z" fill="black"/>
</svg>
