<svg viewBox="0 0 19 18" fill="none" xmlns="http://www.w3.org/2000/svg">
<path d="M13.2876 11.302H12.4976L12.2176 11.032C13.1976 9.892 13.7876 8.412 13.7876 6.802C13.7876 3.212 10.8776 0.302002 7.2876 0.302002C3.6976 0.302002 0.787598 3.212 0.787598 6.802C0.787598 10.392 3.6976 13.302 7.2876 13.302C8.8976 13.302 10.3776 12.712 11.5176 11.732L11.7876 12.012V12.802L16.7876 17.792L18.2776 16.302L13.2876 11.302ZM7.2876 11.302C4.7976 11.302 2.7876 9.292 2.7876 6.802C2.7876 4.312 4.7976 2.302 7.2876 2.302C9.7776 2.302 11.7876 4.312 11.7876 6.802C11.7876 9.292 9.7776 11.302 7.2876 11.302Z"/>
</svg>
